<svg xmlns="http://www.w3.org/2000/svg" viewBox="0 0 204.38 55.831"><path d="M11.729 32.01V49.9C2.485 42.976-1.983 30.41.839 19.17c6.179 1.012 10.89 6.377 10.89 12.84Z" style="fill:#f3920b"/><path d="M59.878 26.153c.043 9.271-4.402 18.173-11.712 23.748V32.009c0-6.462 4.711-11.827 10.89-12.839.54 2.239.822 4.577.822 6.983Z" style="fill:#1f7298"/><path d="M57.688 14.898c-8.128 1.644-14.077 8.8-14.077 17.219V52.79a29.731 29.731 0 0 1-9.76 3.041v-39.11C33.857 9.32 38.202 2.94 44.508 0a30.002 30.002 0 0 1 13.18 14.898Z" style="fill:#1f7298"/><path d="M26.043 16.72v39.111a29.73 29.73 0 0 1-9.76-3.041V32.117c.001-8.418-5.949-15.575-14.076-17.219A30.002 30.002 0 0 1 15.387 0c6.307 2.94 10.652 9.32 10.656 16.72Z" style="fill:#f3920b"/><path d="M87.606 14.38h-6.848v4.637h8.038v2.866h-9.52a2.085 2.085 0 0 1-2.085-2.085V6.656c0-1.151.933-2.085 2.085-2.085h9.495V7.46h-8.013v4.126h6.849v2.794ZM101.593 17.341c0-.673-.238-1.19-.713-1.551-.476-.362-1.332-.742-2.569-1.142-1.236-.4-2.214-.795-2.935-1.183-1.967-1.062-2.949-2.493-2.949-4.293 0-.935.263-1.769.79-2.502.527-.734 1.284-1.306 2.271-1.718s2.095-.619 3.324-.619c1.236 0 2.338.224 3.304.672.968.448 1.72 1.08 2.255 1.897.534.816.802 1.743.802 2.782h-3.567c0-.792-.25-1.409-.75-1.85-.5-.439-1.2-.66-2.103-.66-.874 0-1.551.185-2.034.554-.483.369-.725.855-.725 1.457 0 .563.284 1.034.85 1.414.565.38 1.4.737 2.502 1.07 2.03.611 3.508 1.368 4.435 2.272.928.904 1.392 2.029 1.392 3.377 0 1.498-.567 2.673-1.7 3.525-1.134.852-2.66 1.278-4.578 1.278-1.331 0-2.545-.243-3.639-.731-1.094-.487-1.927-1.155-2.502-2.004-.576-.848-.863-1.83-.863-2.948h3.58c0 1.91 1.142 2.865 3.424 2.865.849 0 1.509-.172 1.985-.517.475-.345.713-.826.713-1.445ZM112.671 15.783v6.1h-3.567V6.656c0-1.151.934-2.085 2.085-2.085h4.669c1.301 0 2.444.238 3.43.714.987.475 1.746 1.15 2.277 2.027.53.876.797 1.872.797 2.99 0 1.696-.58 3.034-1.742 4.013-1.161.98-2.769 1.468-4.821 1.468h-3.128Zm0-2.889h3.187c.943 0 1.662-.221 2.16-.666.494-.444.741-1.077.741-1.902 0-.848-.25-1.534-.748-2.057-.5-.524-1.189-.793-2.07-.809h-3.27v5.434ZM131.748 15.545h-2.84v6.338h-3.568V6.656c0-1.151.933-2.085 2.085-2.085h4.347c2.045 0 3.622.456 4.732 1.367 1.11.912 1.664 2.2 1.664 3.865 0 1.181-.255 2.166-.767 2.954-.51.789-1.286 1.418-2.324 1.885l3.746 7.075v.166h-3.828l-3.248-6.338Zm-2.84-2.889h2.876c.896 0 1.59-.228 2.081-.683s.736-1.084.736-1.885c0-.816-.23-1.458-.694-1.926s-1.176-.702-2.135-.702h-2.865v5.197ZM152.755 14.38h-6.85v4.637h8.039v2.866h-9.52a2.085 2.085 0 0 1-2.085-2.085V6.656c0-1.151.933-2.085 2.085-2.085h9.497V7.46h-8.015v4.126h6.849v2.794ZM166.741 17.341c0-.673-.238-1.19-.713-1.551-.476-.362-1.332-.742-2.569-1.142-1.236-.4-2.214-.795-2.935-1.183-1.967-1.062-2.949-2.493-2.949-4.293 0-.935.263-1.769.79-2.502s1.284-1.306 2.271-1.718 2.095-.619 3.324-.619c1.236 0 2.338.224 3.304.672.968.448 1.72 1.08 2.255 1.897s.802 1.743.802 2.782h-3.567c0-.792-.25-1.409-.75-1.85-.5-.439-1.2-.66-2.103-.66-.874 0-1.55.185-2.034.554-.483.369-.725.855-.725 1.457 0 .563.284 1.034.85 1.414.566.38 1.4.737 2.502 1.07 2.03.611 3.508 1.368 4.435 2.272.928.904 1.392 2.029 1.392 3.377 0 1.498-.567 2.673-1.7 3.525s-2.66 1.278-4.578 1.278c-1.331 0-2.545-.243-3.639-.731-1.094-.487-1.927-1.155-2.502-2.004-.576-.848-.863-1.83-.863-2.948h3.58c0 1.91 1.142 2.865 3.425 2.865.848 0 1.508-.172 1.984-.517.475-.345.713-.826.713-1.445ZM183.193 17.341c0-.673-.238-1.19-.714-1.551-.475-.362-1.331-.742-2.568-1.142-1.236-.4-2.216-.795-2.937-1.183-1.965-1.062-2.949-2.493-2.949-4.293 0-.935.264-1.769.791-2.502.527-.734 1.285-1.306 2.272-1.718.985-.412 2.095-.619 3.323-.619 1.237 0 2.339.224 3.305.672s1.718 1.08 2.252 1.897c.537.816.803 1.743.803 2.782h-3.567c0-.792-.25-1.409-.748-1.85-.5-.439-1.202-.66-2.106-.66-.87 0-1.548.185-2.031.554-.486.369-.727.855-.727 1.457 0 .563.283 1.034.85 1.414s1.402.737 2.504 1.07c2.028.611 3.508 1.368 4.434 2.272.929.904 1.391 2.029 1.391 3.377 0 1.498-.567 2.673-1.699 3.525-1.134.852-2.66 1.278-4.579 1.278-1.332 0-2.543-.243-3.637-.731-1.094-.487-1.93-1.155-2.504-2.004-.574-.848-.862-1.83-.862-2.948h3.579c0 1.91 1.141 2.865 3.424 2.865.849 0 1.51-.172 1.986-.517.476-.345.714-.826.714-1.445ZM204.38 13.62c0 1.704-.3 3.198-.904 4.482-.6 1.284-1.464 2.276-2.585 2.973-1.122.697-2.408 1.046-3.858 1.046-1.434 0-2.715-.345-3.841-1.035-1.126-.69-1.998-1.674-2.616-2.954-.618-1.28-.932-2.753-.94-4.418v-.856c0-1.703.309-3.204.923-4.5.613-1.296 1.482-2.29 2.603-2.984 1.122-.694 2.404-1.04 3.846-1.04 1.444 0 2.724.346 3.847 1.04 1.122.693 1.99 1.688 2.604 2.984.615 1.296.921 2.793.921 4.489v.772Zm-3.614-.786c0-1.814-.326-3.194-.974-4.137-.651-.943-1.578-1.415-2.784-1.415-1.196 0-2.12.465-2.77 1.397-.65.932-.98 2.297-.987 4.096v.844c0 1.768.325 3.139.976 4.114.648.975 1.584 1.463 2.806 1.463 1.196 0 2.115-.47 2.758-1.409.641-.94.967-2.308.974-4.108v-.845ZM89.794 32.635h-5.311V47.08H80.91V32.635h-3.683a2.088 2.088 0 0 1-2.087-2.088v-.805h14.653v2.893ZM104.732 29.742V41.16c0 1.898-.593 3.398-1.78 4.501-1.186 1.104-2.807 1.656-4.863 1.656-2.025 0-3.633-.537-4.824-1.608-1.19-1.072-1.796-2.544-1.821-4.417v-11.55h1.484c1.153 0 2.088.935 2.088 2.088v9.354c0 1.135.272 1.963.815 2.483.545.52 1.298.78 2.258.78 2.008 0 3.027-1.056 3.06-3.168v-9.45c0-1.152.934-2.087 2.087-2.087h1.496ZM120.502 32.635h-5.31V47.08h-3.571V32.635h-5.24v-2.893h14.121v2.893ZM135.976 38.803c0 1.707-.303 3.203-.905 4.49-.604 1.285-1.467 2.278-2.591 2.976-1.122.698-2.41 1.048-3.864 1.048-1.436 0-2.718-.346-3.846-1.037-1.126-.69-2-1.676-2.62-2.958s-.931-2.757-.939-4.424v-.857c0-1.706.307-3.208.922-4.507.616-1.297 1.484-2.293 2.608-2.988 1.123-.695 2.407-1.042 3.853-1.042 1.444 0 2.728.347 3.852 1.042 1.122.695 1.99 1.691 2.606 2.988.615 1.299.924 2.797.924 4.495v.774Zm-3.62-.786c0-1.817-.326-3.199-.977-4.144-.65-.944-1.58-1.416-2.786-1.416-1.198 0-2.124.466-2.775 1.4-.65.932-.98 2.299-.987 4.101v.845c0 1.77.326 3.143.975 4.12.652.976 1.59 1.465 2.81 1.465 1.199 0 2.12-.47 2.763-1.411.644-.941.97-2.312.977-4.114v-.846ZM145.904 40.732h-2.844v6.347h-3.572v-15.25c0-1.152.934-2.087 2.087-2.087h4.354c2.048 0 3.627.457 4.738 1.369 1.112.914 1.667 2.203 1.667 3.87 0 1.183-.255 2.17-.768 2.959-.51.79-1.288 1.42-2.328 1.887l3.751 7.085v.167h-3.833l-3.252-6.347Zm-2.844-2.893h2.88c.898 0 1.593-.229 2.085-.685.491-.456.737-1.085.737-1.887 0-.817-.23-1.46-.695-1.929s-1.178-.703-2.138-.703h-2.87v5.204ZM159.651 47.079h-3.572V29.742h1.485c1.153 0 2.087.935 2.087 2.088v15.249ZM173.261 43.507H167l-1.19 3.572h-3.8l6.453-17.337h3.312l6.488 17.337h-3.798l-1.203-3.572Zm-5.298-2.894h4.334l-2.179-6.49-2.155 6.49ZM183.844 44.209h6.71v2.87h-8.194a2.088 2.088 0 0 1-2.088-2.088V29.742h3.572V44.21ZM200.795 42.53c0-.674-.238-1.192-.715-1.553-.476-.362-1.333-.743-2.572-1.143-1.238-.402-2.217-.797-2.94-1.186-1.97-1.064-2.952-2.496-2.952-4.298 0-.937.263-1.772.79-2.507s1.286-1.308 2.275-1.72c.989-.412 2.098-.62 3.328-.62 1.239 0 2.342.225 3.31.673.97.45 1.722 1.082 2.257 1.9s.804 1.746.804 2.786h-3.572c0-.794-.252-1.41-.75-1.852-.502-.44-1.203-.66-2.108-.66-.874 0-1.552.184-2.036.553a1.746 1.746 0 0 0-.726 1.459c0 .564.284 1.035.852 1.416.565.381 1.402.739 2.505 1.072 2.033.611 3.513 1.37 4.44 2.275.93.905 1.395 2.031 1.395 3.381 0 1.5-.568 2.677-1.703 3.53s-2.663 1.28-4.584 1.28c-1.333 0-2.549-.243-3.644-.732-1.096-.488-1.93-1.156-2.506-2.006-.577-.85-.864-1.834-.864-2.953h3.585c0 1.913 1.143 2.869 3.43 2.869.849 0 1.51-.172 1.986-.517.476-.346.715-.828.715-1.447Z" style="fill:#58585a"/></svg>