<svg xmlns="http://www.w3.org/2000/svg" fill="none" class="revtrac" viewBox="0 0 1007 264">
									<path fill="#8B8B8D" d="M475.226 206.299c.843-1.751 2.01-3.177 3.436-4.279 1.426-1.102 3.177-1.945 5.122-2.464 1.945-.518 4.084-.778 6.483-.778 1.816 0 3.566.195 5.381.519 1.816.324 3.372.972 4.798 1.945 1.426.972 2.593 2.269 3.501 4.02.908 1.685 1.361 3.954 1.361 6.677v21.655c0 2.009.973 2.982 2.918 2.982.583 0 1.102-.13 1.556-.324v4.214c-.584.13-1.102.194-1.556.259-.454 0-1.037.065-1.686.065-1.296 0-2.269-.194-3.047-.519a3.617 3.617 0 0 1-1.75-1.491c-.454-.648-.714-1.361-.843-2.269a19.045 19.045 0 0 1-.195-2.853h-.129a41.263 41.263 0 0 1-2.723 3.501 13.246 13.246 0 0 1-3.112 2.594c-1.103.713-2.399 1.232-3.89 1.556-1.427.389-3.177.583-5.187.583-1.88 0-3.695-.194-5.316-.648s-3.112-1.167-4.344-2.14c-1.232-.972-2.204-2.204-2.918-3.695-.713-1.491-1.037-3.307-1.037-5.316 0-2.853.648-5.057 1.88-6.678 1.232-1.621 2.918-2.853 4.992-3.696 2.075-.842 4.409-1.426 7.067-1.75 2.593-.324 5.252-.648 7.975-.973a94.206 94.206 0 0 0 2.787-.389 4.434 4.434 0 0 0 1.945-.842c.519-.389.908-.908 1.232-1.621.324-.713.454-1.556.454-2.658 0-1.686-.259-3.048-.843-4.15-.583-1.102-1.296-1.945-2.269-2.593-.972-.648-2.139-1.037-3.371-1.297-1.232-.259-2.658-.324-4.149-.324-3.177 0-5.771.778-7.716 2.269-2.009 1.491-3.047 3.89-3.176 7.262h-4.993c.13-2.399.649-4.409 1.492-6.16l-.13-.194Zm24.896 12.189c-.324.583-.908.972-1.816 1.296-.907.26-1.685.454-2.398.584-2.14.389-4.279.713-6.548.972-2.27.324-4.279.713-6.095 1.297-1.815.583-3.371 1.426-4.538 2.464-1.167 1.102-1.751 2.593-1.751 4.603 0 1.296.26 2.398.778 3.371.519.972 1.167 1.815 2.01 2.528.843.714 1.816 1.232 2.918 1.621s2.269.584 3.371.584c1.88 0 3.695-.26 5.446-.843 1.75-.584 3.242-1.426 4.538-2.529 1.297-1.102 2.334-2.463 3.112-4.019s1.167-3.371 1.167-5.381v-6.484h-.129l-.065-.064ZM519.572 200.01v7.067h.129c.973-2.464 2.659-4.473 5.057-5.965 2.399-1.491 5.057-2.269 7.975-2.269 2.917 0 5.251.389 7.131 1.102 1.945.714 3.437 1.751 4.604 3.112 1.167 1.362 2.009 2.983 2.463 4.928.454 1.945.713 4.149.713 6.548v26.257h-4.992v-25.479c0-1.751-.129-3.371-.454-4.863-.324-1.491-.842-2.787-1.685-3.89-.778-1.102-1.88-1.945-3.177-2.593-1.362-.648-3.047-.972-4.992-.972-1.945 0-3.76.324-5.316 1.037a11.857 11.857 0 0 0-3.955 2.917c-1.102 1.232-1.945 2.723-2.529 4.409-.583 1.686-.907 3.566-.972 5.576v23.793h-4.992v-40.78h4.992v.065ZM598.084 184.321c2.529 0 4.798.389 6.808 1.231 2.01.843 3.76 1.945 5.187 3.372a14.983 14.983 0 0 1 3.306 4.927c.778 1.88 1.167 3.89 1.167 6.03 0 3.306-.713 6.223-2.075 8.622-1.361 2.399-3.695 4.279-6.807 5.511v.13c1.556.454 2.788 1.037 3.825 1.945.973.843 1.815 1.88 2.464 3.112.648 1.167 1.102 2.463 1.361 3.89.324 1.426.454 2.852.584 4.279 0 .907.129 1.945.129 3.177 0 1.231.13 2.463.26 3.695.129 1.297.324 2.464.648 3.566.324 1.167.713 2.074 1.297 2.917h-12.383c-.714-1.815-1.103-3.955-1.232-6.418a80.624 80.624 0 0 0-.713-7.132c-.454-2.982-1.297-5.122-2.723-6.483-1.362-1.362-3.631-2.075-6.743-2.075h-12.383v22.043h-12.383v-56.469h30.406v.13Zm-4.473 25.544c2.853 0 4.992-.649 6.418-1.88 1.427-1.232 2.14-3.307 2.14-6.16 0-2.852-.713-4.732-2.14-5.964-1.426-1.232-3.565-1.88-6.418-1.88h-13.615v15.884h13.615ZM631.538 226.851c.714 1.297 1.556 2.399 2.723 3.177 1.167.843 2.464 1.426 4.02 1.815 1.556.389 3.112.584 4.733.584 1.102 0 2.269-.065 3.566-.26 1.296-.194 2.463-.518 3.565-1.037a7.664 7.664 0 0 0 2.788-2.204c.713-.908 1.102-2.075 1.102-3.501 0-1.556-.518-2.788-1.491-3.696-.972-.972-2.269-1.75-3.825-2.399-1.556-.648-3.371-1.167-5.381-1.685-2.01-.454-4.02-.973-6.094-1.556a48.6 48.6 0 0 1-6.159-1.945c-2.01-.778-3.826-1.751-5.382-2.983-1.556-1.231-2.852-2.723-3.825-4.538-.972-1.815-1.491-4.02-1.491-6.613 0-2.917.648-5.446 1.88-7.521 1.232-2.139 2.853-3.89 4.863-5.316 2.01-1.426 4.279-2.464 6.807-3.177a27.792 27.792 0 0 1 7.586-1.037c2.982 0 5.77.324 8.493.972a22.303 22.303 0 0 1 7.261 3.177 16.706 16.706 0 0 1 4.992 5.641c1.232 2.269 1.88 5.057 1.88 8.363h-11.994c-.129-1.685-.454-3.112-1.037-4.214-.584-1.102-1.426-1.945-2.399-2.593-.972-.649-2.139-1.102-3.436-1.362-1.297-.259-2.723-.389-4.214-.389-.973 0-2.01.13-2.982.324-.973.195-1.945.584-2.723 1.103-.778.518-1.492 1.167-2.01 1.945-.519.778-.778 1.815-.778 2.982 0 1.102.194 2.01.648 2.658.389.713 1.232 1.297 2.464 1.88 1.232.584 2.982 1.167 5.121 1.751 2.205.583 5.058 1.296 8.558 2.204 1.038.195 2.529.584 4.409 1.167 1.88.584 3.696 1.426 5.576 2.658 1.815 1.232 3.436 2.853 4.797 4.863 1.362 2.009 2.01 4.603 2.01 7.78 0 2.593-.518 4.992-1.491 7.196a14.633 14.633 0 0 1-4.473 5.705c-2.01 1.621-4.409 2.853-7.327 3.761-2.917.907-6.288 1.361-10.178 1.361-3.112 0-6.095-.389-9.077-1.167-2.917-.778-5.511-1.945-7.715-3.566-2.269-1.62-4.02-3.695-5.316-6.224-1.297-2.528-1.945-5.51-1.881-9.011h11.995c0 1.88.324 3.501 1.037 4.797l-.195.13ZM706.874 199.427c-.713-1.167-1.685-2.205-2.788-3.112-1.102-.908-2.334-1.621-3.76-2.075-1.426-.454-2.853-.778-4.409-.778-2.787 0-5.186.519-7.131 1.621-1.945 1.102-3.501 2.528-4.733 4.344-1.232 1.815-2.075 3.89-2.658 6.224-.584 2.334-.843 4.732-.843 7.196 0 2.464.259 4.668.843 6.937.583 2.269 1.426 4.279 2.658 6.03 1.232 1.815 2.788 3.241 4.733 4.279 1.945 1.102 4.344 1.621 7.131 1.621 3.826 0 6.743-1.167 8.883-3.501 2.139-2.334 3.436-5.382 3.89-9.142h11.994c-.324 3.501-1.102 6.743-2.464 9.595a22.79 22.79 0 0 1-5.187 7.262c-2.139 2.009-4.668 3.501-7.585 4.603-2.918 1.037-6.094 1.556-9.531 1.556-4.343 0-8.233-.778-11.669-2.269-3.437-1.492-6.354-3.566-8.753-6.224-2.399-2.658-4.214-5.706-5.446-9.271-1.297-3.566-1.88-7.391-1.88-11.476 0-4.084.648-8.104 1.88-11.735 1.232-3.63 3.112-6.742 5.446-9.465 2.334-2.723 5.252-4.798 8.753-6.354 3.436-1.556 7.326-2.269 11.669-2.269 3.112 0 6.03.454 8.818 1.361 2.788.908 5.251 2.205 7.456 3.89 2.204 1.686 4.019 3.826 5.446 6.354 1.426 2.529 2.334 5.446 2.658 8.688h-11.994c-.195-1.427-.714-2.723-1.427-3.89ZM763.409 207.92c-.584-1.102-1.362-2.075-2.334-2.788-.973-.713-2.075-1.297-3.372-1.621-1.296-.324-2.593-.518-4.019-.518-1.102 0-2.205.129-3.372.324-1.102.259-2.204.648-3.112 1.167-.907.518-1.685 1.296-2.269 2.204-.583.908-.843 2.01-.843 3.307 0 1.102.26 2.074.843 2.787.584.778 1.232 1.427 2.075 1.945.843.519 1.75.973 2.788 1.297.972.324 1.945.648 2.788.843l6.612 1.491c1.427.194 2.853.583 4.215 1.167 1.426.583 2.658 1.297 3.695 2.204 1.102.908 1.945 2.01 2.658 3.307.713 1.296 1.038 2.852 1.038 4.668 0 2.204-.519 4.084-1.492 5.64a11.965 11.965 0 0 1-3.825 3.825 15.61 15.61 0 0 1-5.251 2.075c-1.945.389-3.89.648-5.77.648-4.798 0-8.688-1.102-11.67-3.371-2.983-2.269-4.668-5.9-5.122-10.892h4.992c.195 3.371 1.426 5.9 3.696 7.65 2.269 1.751 4.992 2.594 8.363 2.594 1.232 0 2.464-.13 3.76-.389a11.298 11.298 0 0 0 3.566-1.362c1.102-.648 2.01-1.426 2.723-2.399.713-.972 1.037-2.204 1.037-3.565 0-1.232-.259-2.205-.778-3.048-.518-.842-1.167-1.491-2.009-2.074-.843-.584-1.816-1.038-2.853-1.362a31.703 31.703 0 0 0-3.307-.972l-6.418-1.427a27.758 27.758 0 0 1-4.473-1.491c-1.362-.583-2.594-1.231-3.631-2.074a8.888 8.888 0 0 1-2.399-2.983c-.583-1.167-.843-2.658-.843-4.408 0-2.075.454-3.825 1.362-5.317.907-1.491 2.139-2.658 3.63-3.565a15.658 15.658 0 0 1 4.928-1.945 22.32 22.32 0 0 1 5.446-.649c2.074 0 3.954.26 5.705.778a13.46 13.46 0 0 1 4.668 2.464c1.361 1.102 2.399 2.464 3.177 4.084.778 1.621 1.232 3.566 1.361 5.771h-4.992c0-1.556-.389-2.853-.972-4.02ZM802.892 200.529c2.399 1.167 4.408 2.723 6.029 4.668 1.621 1.945 2.853 4.214 3.696 6.807.843 2.594 1.232 5.381 1.232 8.364 0 2.982-.389 5.705-1.232 8.363-.843 2.593-2.075 4.863-3.696 6.808a17.004 17.004 0 0 1-6.029 4.603c-2.399 1.102-5.187 1.685-8.234 1.685-3.047 0-5.835-.583-8.234-1.685a17.004 17.004 0 0 1-6.029-4.603c-1.621-1.945-2.853-4.215-3.696-6.808s-1.296-5.381-1.296-8.363c0-2.983.453-5.706 1.296-8.364.843-2.658 2.075-4.862 3.696-6.807 1.621-1.945 3.63-3.501 6.029-4.668 2.399-1.167 5.122-1.751 8.234-1.751s5.835.584 8.234 1.751Zm-14.523 3.955c-1.815.972-3.306 2.334-4.473 3.954-1.167 1.621-2.075 3.501-2.723 5.576-.649 2.075-.908 4.214-.908 6.354 0 2.139.324 4.279.908 6.353.583 2.075 1.491 3.955 2.723 5.576 1.167 1.621 2.658 2.982 4.473 3.955 1.816.972 3.89 1.491 6.224 1.491s4.474-.519 6.224-1.491a13.79 13.79 0 0 0 4.474-3.955c1.167-1.621 2.074-3.501 2.658-5.576.583-2.074.907-4.214.907-6.353 0-2.14-.324-4.279-.907-6.354-.584-2.075-1.491-3.955-2.658-5.576-1.167-1.62-2.659-2.982-4.474-3.954-1.815-.973-3.89-1.492-6.224-1.492s-4.473.519-6.224 1.492ZM825.843 184.32v56.47h-4.992v-56.47h4.992ZM863.316 240.79v-7.326h-.13c-1.296 2.723-3.241 4.862-5.705 6.289-2.528 1.426-5.251 2.204-8.363 2.204-2.594 0-4.798-.324-6.613-1.037-1.816-.714-3.307-1.751-4.409-3.048-1.167-1.296-1.945-2.917-2.464-4.797-.518-1.88-.778-4.085-.778-6.483V200.14h4.993v26.581c.129 3.696.972 6.483 2.593 8.364 1.621 1.88 4.409 2.852 8.363 2.852 2.14 0 4.02-.454 5.511-1.361 1.556-.908 2.788-2.14 3.825-3.696a17.296 17.296 0 0 0 2.205-5.251c.453-1.945.713-4.02.713-6.03v-21.395h4.992v40.78h-4.603l-.13-.194ZM892.945 200.01v4.214h-8.299v27.49c0 1.62.195 2.917.649 3.825.454.907 1.556 1.426 3.371 1.556 1.426 0 2.853-.065 4.279-.26v4.215c-.713 0-1.491 0-2.204.064-.713 0-1.491.065-2.205.065-3.306 0-5.64-.648-6.937-1.945-1.296-1.296-1.945-3.695-1.88-7.131v-27.879h-7.132v-4.214h7.132v-12.253h4.992v12.253h8.299-.065ZM904.615 184.32v7.975h-4.992v-7.975h4.992Zm0 15.69v40.78h-4.992v-40.78h4.992ZM939.106 200.529c2.399 1.167 4.409 2.723 6.03 4.668 1.62 1.945 2.852 4.214 3.695 6.807.843 2.594 1.232 5.381 1.232 8.364 0 2.982-.389 5.705-1.232 8.363-.843 2.593-2.075 4.863-3.695 6.808a17.008 17.008 0 0 1-6.03 4.603c-2.399 1.102-5.186 1.685-8.234 1.685-3.047 0-5.835-.583-8.233-1.685a17.008 17.008 0 0 1-6.03-4.603c-1.621-1.945-2.853-4.215-3.695-6.808-.843-2.593-1.297-5.381-1.297-8.363 0-2.983.454-5.706 1.297-8.364.842-2.658 2.074-4.862 3.695-6.807 1.621-1.945 3.631-3.501 6.03-4.668 2.398-1.167 5.121-1.751 8.233-1.751s5.835.584 8.234 1.751Zm-14.458 3.955c-1.815.972-3.306 2.334-4.473 3.954-1.167 1.621-2.075 3.501-2.723 5.576-.648 2.075-.908 4.214-.908 6.354 0 2.139.324 4.279.908 6.353.583 2.075 1.491 3.955 2.723 5.576 1.167 1.621 2.658 2.982 4.473 3.955 1.816.972 3.89 1.491 6.224 1.491s4.474-.519 6.224-1.491a13.79 13.79 0 0 0 4.474-3.955c1.167-1.621 2.074-3.501 2.658-5.576.583-2.074.908-4.214.908-6.353 0-2.14-.325-4.279-.908-6.354-.584-2.075-1.491-3.955-2.658-5.576-1.167-1.62-2.658-2.982-4.474-3.954-1.815-.973-3.89-1.492-6.224-1.492s-4.473.519-6.224 1.492ZM961.927 200.01v7.067h.13c.972-2.464 2.658-4.473 5.057-5.965 2.399-1.491 5.057-2.269 7.974-2.269 2.918 0 5.252.389 7.132 1.102 1.945.714 3.436 1.751 4.603 3.112 1.167 1.362 2.01 2.983 2.464 4.928.453 1.945.713 4.149.713 6.548v26.257h-4.992v-25.479c0-1.751-.13-3.371-.454-4.863-.324-1.491-.843-2.787-1.686-3.89-.778-1.102-1.88-1.945-3.177-2.593-1.361-.648-3.047-.972-4.992-.972-1.945 0-3.76.324-5.316 1.037a11.857 11.857 0 0 0-3.955 2.917c-1.102 1.232-1.945 2.723-2.528 4.409-.584 1.686-.908 3.566-.973 5.576v23.793h-4.992v-40.78h4.992v.065Z"></path>
									<path fill="#F04E57" d="m405.984 124.998-56.21 10.049 11.605 4.538 46.485-8.817M395.222 91.48l-120.784 14.522 12.513 4.798 109.892-14.328"></path>
									<path fill="#1E396B" d="M386.859 65.287 197.417 76.243l77.021 29.759 120.784-14.523-8.363-26.192ZM402.354 113.588l-5.511-17.116L286.951 110.8l62.823 24.247 56.21-10.049-3.63-11.41ZM361.379 139.585l56.275 21.719-9.79-30.536-46.485 8.817Z"></path>
									<path fill="#8F98AB" d="m142.762 79.42-37.019 46.81 168.695-20.228-77.021-29.758-54.655 3.177ZM98.74 135.307l-39.807 51.931 290.841-52.191-62.823-24.247-188.21 24.507ZM50.18 198.583 0 264l417.654-102.696-56.275-21.719-311.198 58.998Z"></path>
									<path fill="#F04E57" d="m0 0 197.416 76.244 189.442-10.957L0 0Z"></path>
									<path fill="#1E396B" d="M494.676 80.912v14.976H495c1.037-2.528 2.464-4.797 4.214-6.937 1.751-2.14 3.825-3.955 6.094-5.446a30.465 30.465 0 0 1 7.327-3.5c2.593-.843 5.316-1.233 8.104-1.233 1.426 0 3.047.26 4.862.778v20.617a69.226 69.226 0 0 0-3.76-.583c-1.426-.13-2.853-.26-4.214-.26-4.085 0-7.521.649-10.309 2.01-2.788 1.362-5.057 3.177-6.807 5.511-1.751 2.334-2.918 5.057-3.696 8.169-.713 3.112-1.102 6.483-1.102 10.179v36.371H473.54V80.847h21.071l.065.065ZM576.884 99.778c-2.658-2.918-6.678-4.344-12.124-4.344-3.566 0-6.483.584-8.817 1.816-2.334 1.166-4.214 2.658-5.641 4.473-1.426 1.751-2.398 3.631-2.982 5.64-.583 1.945-.907 3.761-1.037 5.317h36.047c-1.037-5.641-2.917-9.92-5.576-12.772l.13-.13Zm-25.09 42.466c3.306 3.241 8.104 4.862 14.393 4.862 4.473 0 8.298-1.102 11.54-3.371 3.242-2.269 5.186-4.603 5.9-7.132h19.514c-3.112 9.66-7.909 16.597-14.328 20.747-6.483 4.149-14.263 6.224-23.404 6.224-6.354 0-12.059-1.038-17.181-3.047-5.122-2.01-9.401-4.928-12.967-8.688-3.566-3.76-6.289-8.234-8.169-13.421-1.945-5.186-2.917-10.956-2.917-17.18s.972-11.67 2.982-16.857c2.01-5.186 4.798-9.725 8.428-13.485 3.631-3.825 7.975-6.808 13.032-9.012 5.057-2.204 10.632-3.306 16.792-3.306 6.872 0 12.837 1.361 17.958 3.954 5.122 2.659 9.271 6.224 12.578 10.698 3.306 4.473 5.64 9.595 7.132 15.3 1.491 5.706 2.009 11.735 1.556 17.959h-58.22c.324 7.197 2.139 12.383 5.446 15.625l-.065.13ZM628.297 161.629l-27.619-80.717h23.275l16.986 55.108h.324l17.051-55.108h21.979l-27.295 80.717h-24.701ZM770.735 80.912v14.847h-16.209v40.002c0 3.76.649 6.224 1.881 7.52 1.231 1.232 3.76 1.88 7.52 1.88 1.232 0 2.464 0 3.566-.129 1.167-.13 2.204-.26 3.242-.454v17.181c-1.881.324-3.955.518-6.224.648-2.269.065-4.539.13-6.743.13a67.48 67.48 0 0 1-9.79-.714c-3.047-.453-5.77-1.361-8.104-2.723-2.334-1.361-4.214-3.241-5.511-5.77-1.361-2.528-2.009-5.77-2.009-9.854V95.823h-13.421V80.977h13.421V56.794h22.172v24.183h16.209v-.065ZM799.261 80.912v14.976h.324c1.038-2.528 2.464-4.797 4.215-6.937 1.75-2.14 3.825-3.955 6.094-5.446a30.458 30.458 0 0 1 7.326-3.5c2.593-.843 5.316-1.233 8.104-1.233 1.427 0 3.047.26 4.863.778v20.617a69.28 69.28 0 0 0-3.761-.583c-1.426-.13-2.852-.26-4.214-.26-4.084 0-7.52.649-10.308 2.01-2.788 1.362-5.057 3.177-6.808 5.511-1.75 2.334-2.917 5.057-3.695 8.169-.713 3.112-1.102 6.483-1.102 10.179v36.371h-22.173V80.847h21.07l.065.065ZM882.961 122.146c-.908.842-2.14 1.491-3.501 1.945a42.504 42.504 0 0 1-4.539 1.167c-1.62.324-3.306.583-5.057.778-1.75.194-3.565.453-5.316.777a42.441 42.441 0 0 0-4.927 1.232c-1.621.519-3.047 1.232-4.214 2.075-1.232.908-2.14 2.01-2.918 3.371-.713 1.362-1.102 3.047-1.102 5.187 0 2.139.389 3.631 1.102 4.992.713 1.362 1.686 2.399 2.983 3.177 1.231.778 2.723 1.297 4.408 1.621 1.686.324 3.372.454 5.122.454 4.344 0 7.78-.714 10.179-2.205s4.149-3.177 5.316-5.251c1.167-2.01 1.815-4.085 2.14-6.159.259-2.075.389-3.761.389-4.993v-8.298l-.065.13Zm-51.218-16.403c.324-5.187 1.621-9.53 3.89-12.967 2.269-3.436 5.186-6.159 8.752-8.298 3.566-2.075 7.521-3.566 11.929-4.474a66.227 66.227 0 0 1 13.356-1.361c4.084 0 8.169.324 12.318.842 4.15.584 7.975 1.686 11.411 3.372 3.436 1.685 6.224 3.954 8.428 6.937 2.205 2.982 3.307 6.872 3.307 11.799v42.012c0 3.631.194 7.132.648 10.438.454 3.307 1.167 5.835 2.204 7.521h-22.497c-.389-1.232-.778-2.529-1.037-3.825-.259-1.297-.454-2.658-.519-3.955-3.566 3.631-7.715 6.224-12.512 7.65-4.798 1.427-9.661 2.205-14.653 2.205-3.825 0-7.456-.454-10.762-1.427a25.197 25.197 0 0 1-8.753-4.343 19.679 19.679 0 0 1-5.834-7.521c-1.427-3.047-2.14-6.613-2.14-10.762 0-4.604.778-8.364 2.399-11.346 1.621-2.982 3.695-5.316 6.224-7.132 2.528-1.75 5.446-3.112 8.752-3.955 3.307-.907 6.613-1.556 9.92-2.074 3.306-.519 6.613-.973 9.854-1.232 3.242-.324 6.095-.778 8.558-1.426 2.529-.649 4.474-1.556 5.965-2.723 1.426-1.232 2.139-2.918 2.01-5.252 0-2.399-.389-4.279-1.167-5.705-.778-1.427-1.816-2.529-3.112-3.307-1.297-.778-2.788-1.296-4.539-1.556a37.628 37.628 0 0 0-5.575-.389c-4.344 0-7.78.908-10.309 2.788-2.528 1.88-3.954 4.992-4.343 9.336h-22.173v.13ZM951.489 95.434c-3.566 0-6.483.778-8.882 2.4a19.153 19.153 0 0 0-5.835 6.223 26.406 26.406 0 0 0-3.177 8.428c-.648 3.048-.907 6.095-.907 9.142 0 3.047.324 5.9.907 8.882.649 3.047 1.621 5.77 3.048 8.169 1.426 2.464 3.306 4.473 5.705 6.029s5.316 2.334 8.752 2.334c5.317 0 9.401-1.491 12.254-4.473 2.852-2.982 4.668-6.937 5.381-11.929h21.395c-1.427 10.697-5.641 18.866-12.513 24.507-6.872 5.64-15.69 8.428-26.387 8.428-6.03 0-11.605-1.038-16.597-3.047-5.057-2.01-9.336-4.863-12.902-8.493-3.566-3.631-6.289-7.975-8.299-13.032s-2.982-10.568-2.982-16.597c0-6.03.908-12.059 2.723-17.44 1.815-5.381 4.473-9.984 8.039-13.874 3.566-3.89 7.845-6.938 12.967-9.142 5.122-2.204 10.957-3.306 17.505-3.306 4.797 0 9.401.648 13.809 1.88a37.276 37.276 0 0 1 11.865 5.705c3.501 2.529 6.288 5.705 8.493 9.53 2.204 3.826 3.436 8.299 3.76 13.486h-21.719c-1.426-9.271-6.937-13.874-16.403-13.874v.064Z"></path>
									<path fill="#F0575F" d="M718.998 131.611v-22.627h-34.167l-7.715 22.627h41.882Z"></path>
									<path fill="#1E396B" d="M998.298 75.207h.843c.26 0 .519-.065.713-.195.196-.13.386-.26.456-.454.13-.194.19-.454.19-.843 0-.259-.06-.518-.19-.713a1.015 1.015 0 0 0-.52-.389c-.195-.064-.454-.13-.649-.194h-2.593v2.788h1.75Zm-1.75 5.446h-1.556v-9.596h3.631c1.167 0 2.007.195 2.597.649.58.453.9 1.167.9 2.074 0 .843-.26 1.492-.71 1.88-.45.39-1.1.649-1.75.714l2.66 4.214h-1.75l-2.466-4.085h-1.491v4.085l-.065.065Zm8.302-4.928c0-1.037-.2-2.01-.52-2.917-.33-.908-.78-1.621-1.43-2.27-.58-.648-1.3-1.102-2.07-1.49a6.879 6.879 0 0 0-2.596-.52c-.908 0-1.816.195-2.594.52-.778.324-1.491.842-2.139 1.49-.584.649-1.037 1.362-1.426 2.27a8.325 8.325 0 0 0-.519 2.917c0 .973.129 1.945.454 2.788.324.843.778 1.621 1.296 2.27a6.985 6.985 0 0 0 2.075 1.555c.843.39 1.751.584 2.788.584.908 0 1.815-.195 2.591-.519a5.904 5.904 0 0 0 2.08-1.491c.58-.648 1.1-1.362 1.42-2.27.33-.842.52-1.814.52-2.917h.07Zm1.81 0c0 1.297-.19 2.464-.65 3.566a8.79 8.79 0 0 1-1.88 2.723 7.458 7.458 0 0 1-2.72 1.75c-1.04.39-2.074.649-3.241.649-1.232 0-2.399-.194-3.436-.648-1.038-.454-1.945-1.038-2.723-1.816-.714-.778-1.362-1.685-1.751-2.723a9.815 9.815 0 0 1-.648-3.436c0-1.297.259-2.464.713-3.566.454-1.037 1.037-1.945 1.88-2.723a7.563 7.563 0 0 1 2.723-1.75c1.038-.39 2.14-.648 3.242-.648 1.102 0 2.201.194 3.241.648 1.04.389 1.95.972 2.72 1.75.78.778 1.36 1.686 1.88 2.723.46 1.038.65 2.27.65 3.566v-.065Z"></path>
								</svg>