<svg xmlns="http://www.w3.org/2000/svg" xmlns:xlink="http://www.w3.org/1999/xlink" width="344" zoomAndPan="magnify" viewBox="0 0 258 155.249994" height="207" preserveAspectRatio="xMidYMid meet" version="1.0"><defs><g/><clipPath id="9ec3950c8c"><path d="M 0.621094 0 L 257 0 L 257 154.503906 L 0.621094 154.503906 Z M 0.621094 0 " clip-rule="nonzero"/></clipPath><clipPath id="928a767e19"><path d="M 53.613281 0 L 203.585938 0 C 232.851562 0 256.578125 23.726562 256.578125 52.992188 L 256.578125 101.507812 C 256.578125 130.777344 232.851562 154.503906 203.585938 154.503906 L 53.613281 154.503906 C 24.347656 154.503906 0.621094 130.777344 0.621094 101.507812 L 0.621094 52.992188 C 0.621094 23.726562 24.347656 0 53.613281 0 Z M 53.613281 0 " clip-rule="nonzero"/></clipPath><clipPath id="e370dbca79"><path d="M 204.300781 0 L 256.578125 0 L 256.578125 49.035156 L 204.300781 49.035156 Z M 204.300781 0 " clip-rule="nonzero"/></clipPath></defs><g clip-path="url(#9ec3950c8c)"><g clip-path="url(#928a767e19)"><path fill="#3b4673" d="M 0.621094 0 L 256.515625 0 L 256.515625 154.503906 L 0.621094 154.503906 Z M 0.621094 0 " fill-opacity="1" fill-rule="nonzero"/></g></g><g clip-path="url(#e370dbca79)"><path fill="#3b4673" d="M 204.300781 0 L 256.59375 0 L 256.59375 49.035156 L 204.300781 49.035156 Z M 204.300781 0 " fill-opacity="1" fill-rule="nonzero"/></g><g fill="#ffffff" fill-opacity="1"><g transform="translate(26.899488, 87.330642)"><g><path d="M 27.296875 0 L 20.8125 0 C 16.40625 0 12.929688 -1.285156 10.390625 -3.859375 C 7.859375 -6.429688 6.59375 -9.945312 6.59375 -14.40625 L 6.59375 -37.359375 C 6.59375 -41.816406 7.859375 -45.332031 10.390625 -47.90625 C 12.929688 -50.476562 16.40625 -51.765625 20.8125 -51.765625 L 42.328125 -51.765625 C 43.003906 -51.765625 43.34375 -51.359375 43.34375 -50.546875 L 43.34375 -1.21875 C 43.34375 -0.40625 43.003906 0 42.328125 0 L 39.375 0 C 38.632812 0 38.265625 -0.40625 38.265625 -1.21875 L 38.265625 -5.28125 L 37.859375 -5.28125 C 36.097656 -1.757812 32.578125 0 27.296875 0 Z M 38.265625 -14.515625 L 38.265625 -46.28125 C 38.265625 -46.894531 37.925781 -47.203125 37.25 -47.203125 L 21.21875 -47.203125 C 18.101562 -47.203125 15.734375 -46.320312 14.109375 -44.5625 C 12.484375 -42.800781 11.671875 -40.332031 11.671875 -37.15625 L 11.671875 -14.609375 C 11.671875 -11.429688 12.484375 -8.960938 14.109375 -7.203125 C 15.734375 -5.441406 18.101562 -4.5625 21.21875 -4.5625 L 27.8125 -4.5625 C 31.0625 -4.5625 33.613281 -5.425781 35.46875 -7.15625 C 37.332031 -8.882812 38.265625 -11.335938 38.265625 -14.515625 Z M 38.265625 -14.515625 "/></g></g></g><g fill="#ffffff" fill-opacity="1"><g transform="translate(77.845583, 87.330642)"><g><path d="M 13.703125 -4.5625 L 29.84375 -4.5625 C 32.957031 -4.5625 35.34375 -5.425781 37 -7.15625 C 38.65625 -8.882812 39.484375 -11.367188 39.484375 -14.609375 L 39.484375 -38.0625 C 39.484375 -41.238281 38.65625 -43.691406 37 -45.421875 C 35.34375 -47.148438 32.957031 -48.015625 29.84375 -48.015625 L 23.140625 -48.015625 C 19.890625 -48.015625 17.332031 -47.148438 15.46875 -45.421875 C 13.613281 -43.691406 12.6875 -41.238281 12.6875 -38.0625 L 12.6875 -5.484375 C 12.6875 -4.867188 13.023438 -4.5625 13.703125 -4.5625 Z M 7.609375 -1.21875 L 7.609375 -70.140625 C 7.609375 -70.953125 7.945312 -71.359375 8.625 -71.359375 L 11.578125 -71.359375 C 12.316406 -71.359375 12.6875 -70.953125 12.6875 -70.140625 L 12.6875 -47.296875 L 13.09375 -47.296875 C 14.988281 -50.816406 18.507812 -52.578125 23.65625 -52.578125 L 30.34375 -52.578125 C 34.75 -52.578125 38.21875 -51.289062 40.75 -48.71875 C 43.289062 -46.144531 44.5625 -42.660156 44.5625 -38.265625 L 44.5625 -14.40625 C 44.5625 -9.945312 43.289062 -6.429688 40.75 -3.859375 C 38.21875 -1.285156 34.75 0 30.34375 0 L 8.625 0 C 7.945312 0 7.609375 -0.40625 7.609375 -1.21875 Z M 7.609375 -1.21875 "/></g></g></g><g fill="#ffffff" fill-opacity="1"><g transform="translate(128.994642, 87.330642)"><g><path d="M 27.296875 0 L 20.8125 0 C 16.40625 0 12.929688 -1.285156 10.390625 -3.859375 C 7.859375 -6.429688 6.59375 -9.945312 6.59375 -14.40625 L 6.59375 -37.359375 C 6.59375 -41.816406 7.859375 -45.332031 10.390625 -47.90625 C 12.929688 -50.476562 16.40625 -51.765625 20.8125 -51.765625 L 42.328125 -51.765625 C 43.003906 -51.765625 43.34375 -51.359375 43.34375 -50.546875 L 43.34375 -1.21875 C 43.34375 -0.40625 43.003906 0 42.328125 0 L 39.375 0 C 38.632812 0 38.265625 -0.40625 38.265625 -1.21875 L 38.265625 -5.28125 L 37.859375 -5.28125 C 36.097656 -1.757812 32.578125 0 27.296875 0 Z M 38.265625 -14.515625 L 38.265625 -46.28125 C 38.265625 -46.894531 37.925781 -47.203125 37.25 -47.203125 L 21.21875 -47.203125 C 18.101562 -47.203125 15.734375 -46.320312 14.109375 -44.5625 C 12.484375 -42.800781 11.671875 -40.332031 11.671875 -37.15625 L 11.671875 -14.609375 C 11.671875 -11.429688 12.484375 -8.960938 14.109375 -7.203125 C 15.734375 -5.441406 18.101562 -4.5625 21.21875 -4.5625 L 27.8125 -4.5625 C 31.0625 -4.5625 33.613281 -5.425781 35.46875 -7.15625 C 37.332031 -8.882812 38.265625 -11.335938 38.265625 -14.515625 Z M 38.265625 -14.515625 "/></g></g></g><g fill="#ffffff" fill-opacity="1"><g transform="translate(179.940737, 87.330642)"><g><path d="M 11.578125 15.125 L 8.625 15.125 C 7.945312 15.125 7.609375 14.75 7.609375 14 L 7.609375 -50.546875 C 7.609375 -51.359375 7.945312 -51.765625 8.625 -51.765625 L 11.578125 -51.765625 C 12.316406 -51.765625 12.6875 -51.359375 12.6875 -50.546875 L 12.6875 -46.484375 L 13.09375 -46.484375 C 14.988281 -50.003906 18.507812 -51.765625 23.65625 -51.765625 L 30.546875 -51.765625 C 34.878906 -51.765625 38.296875 -50.476562 40.796875 -47.90625 C 43.304688 -45.332031 44.5625 -41.816406 44.5625 -37.359375 L 44.5625 -14.40625 C 44.5625 -9.945312 43.304688 -6.429688 40.796875 -3.859375 C 38.296875 -1.285156 34.878906 0 30.546875 0 L 23.65625 0 C 18.507812 0 14.988281 -1.757812 13.09375 -5.28125 L 12.6875 -5.28125 L 12.6875 14 C 12.6875 14.75 12.316406 15.125 11.578125 15.125 Z M 23.140625 -4.5625 L 29.84375 -4.5625 C 32.957031 -4.5625 35.34375 -5.425781 37 -7.15625 C 38.65625 -8.882812 39.484375 -11.367188 39.484375 -14.609375 L 39.484375 -37.15625 C 39.484375 -40.394531 38.65625 -42.878906 37 -44.609375 C 35.34375 -46.335938 32.957031 -47.203125 29.84375 -47.203125 L 23.140625 -47.203125 C 19.890625 -47.203125 17.332031 -46.335938 15.46875 -44.609375 C 13.613281 -42.878906 12.6875 -40.425781 12.6875 -37.25 L 12.6875 -14.515625 C 12.6875 -11.335938 13.613281 -8.882812 15.46875 -7.15625 C 17.332031 -5.425781 19.890625 -4.5625 23.140625 -4.5625 Z M 23.140625 -4.5625 "/></g></g></g><g fill="#ffffff" fill-opacity="1"><g transform="translate(178.402652, 129.737439)"><g><path d="M 14.203125 -64.046875 L 14.203125 -1.21875 C 14.203125 -0.40625 13.832031 0 13.09375 0 L 10.15625 0 C 9.476562 0 9.140625 -0.40625 9.140625 -1.21875 L 9.140625 -64.046875 C 9.140625 -64.859375 9.476562 -65.265625 10.15625 -65.265625 L 13.09375 -65.265625 C 13.832031 -65.265625 14.203125 -64.859375 14.203125 -64.046875 Z M 14.203125 -64.046875 "/></g></g></g><g fill="#ffffff" fill-opacity="1"><g transform="translate(33.650866, 130.92089)"><g><path d="M 13.96875 -1.3125 L 13.96875 -0.421875 C 13.96875 -0.140625 13.828125 0 13.546875 0 L 7.953125 0 C 6.273438 0 4.945312 -0.488281 3.96875 -1.46875 C 3 -2.457031 2.515625 -3.804688 2.515625 -5.515625 L 2.515625 -14.28125 C 2.515625 -15.988281 3 -17.332031 3.96875 -18.3125 C 4.945312 -19.300781 6.273438 -19.796875 7.953125 -19.796875 L 13.546875 -19.796875 C 13.828125 -19.796875 13.96875 -19.65625 13.96875 -19.375 L 13.96875 -18.4375 C 13.96875 -18.175781 13.828125 -18.046875 13.546875 -18.046875 L 8.109375 -18.046875 C 6.921875 -18.046875 6.015625 -17.707031 5.390625 -17.03125 C 4.773438 -16.363281 4.46875 -15.421875 4.46875 -14.203125 L 4.46875 -5.59375 C 4.46875 -4.375 4.773438 -3.425781 5.390625 -2.75 C 6.015625 -2.082031 6.921875 -1.75 8.109375 -1.75 L 13.546875 -1.75 C 13.828125 -1.75 13.96875 -1.601562 13.96875 -1.3125 Z M 13.96875 -1.3125 "/></g></g></g><g fill="#ffffff" fill-opacity="1"><g transform="translate(48.938371, 130.92089)"><g><path d="M 11.296875 0 L 7.953125 0 C 6.273438 0 4.945312 -0.488281 3.96875 -1.46875 C 3 -2.457031 2.515625 -3.804688 2.515625 -5.515625 L 2.515625 -14.28125 C 2.515625 -15.988281 3 -17.332031 3.96875 -18.3125 C 4.945312 -19.300781 6.273438 -19.796875 7.953125 -19.796875 L 11.296875 -19.796875 C 12.972656 -19.796875 14.300781 -19.300781 15.28125 -18.3125 C 16.269531 -17.332031 16.765625 -15.988281 16.765625 -14.28125 L 16.765625 -5.515625 C 16.765625 -3.804688 16.269531 -2.457031 15.28125 -1.46875 C 14.300781 -0.488281 12.972656 0 11.296875 0 Z M 8.109375 -1.75 L 11.140625 -1.75 C 12.328125 -1.75 13.238281 -2.078125 13.875 -2.734375 C 14.507812 -3.390625 14.828125 -4.328125 14.828125 -5.546875 L 14.828125 -14.25 C 14.828125 -15.457031 14.507812 -16.390625 13.875 -17.046875 C 13.238281 -17.710938 12.328125 -18.046875 11.140625 -18.046875 L 8.109375 -18.046875 C 6.921875 -18.046875 6.015625 -17.710938 5.390625 -17.046875 C 4.773438 -16.390625 4.46875 -15.457031 4.46875 -14.25 L 4.46875 -5.546875 C 4.46875 -4.328125 4.773438 -3.390625 5.390625 -2.734375 C 6.015625 -2.078125 6.921875 -1.75 8.109375 -1.75 Z M 8.109375 -1.75 "/></g></g></g><g fill="#ffffff" fill-opacity="1"><g transform="translate(68.183566, 130.92089)"><g><path d="M 4.421875 0 L 3.296875 0 C 3.035156 0 2.90625 -0.15625 2.90625 -0.46875 L 2.90625 -19.328125 C 2.90625 -19.640625 3.035156 -19.796875 3.296875 -19.796875 L 4.421875 -19.796875 C 4.703125 -19.796875 4.84375 -19.640625 4.84375 -19.328125 L 4.84375 -17.78125 L 5 -17.78125 C 5.726562 -19.125 7.078125 -19.796875 9.046875 -19.796875 L 11.609375 -19.796875 C 13.265625 -19.796875 14.570312 -19.300781 15.53125 -18.3125 C 16.488281 -17.332031 16.96875 -15.988281 16.96875 -14.28125 L 16.96875 -0.46875 C 16.96875 -0.15625 16.835938 0 16.578125 0 L 15.453125 0 C 15.160156 0 15.015625 -0.15625 15.015625 -0.46875 L 15.015625 -14.203125 C 15.015625 -15.421875 14.703125 -16.363281 14.078125 -17.03125 C 13.460938 -17.707031 12.5625 -18.046875 11.375 -18.046875 L 8.84375 -18.046875 C 7.601562 -18.046875 6.625 -17.710938 5.90625 -17.046875 C 5.195312 -16.390625 4.84375 -15.457031 4.84375 -14.25 L 4.84375 -0.46875 C 4.84375 -0.15625 4.703125 0 4.421875 0 Z M 4.421875 0 "/></g></g></g><g fill="#ffffff" fill-opacity="1"><g transform="translate(87.855567, 130.92089)"><g><path d="M 6.984375 -19.796875 L 10.515625 -19.796875 C 10.828125 -19.796875 10.984375 -19.65625 10.984375 -19.375 L 10.984375 -18.46875 C 10.984375 -18.1875 10.828125 -18.046875 10.515625 -18.046875 L 6.984375 -18.046875 C 6.753906 -18.046875 6.640625 -17.929688 6.640625 -17.703125 L 6.640625 -0.46875 C 6.640625 -0.15625 6.492188 0 6.203125 0 L 5.078125 0 C 4.796875 0 4.65625 -0.15625 4.65625 -0.46875 L 4.65625 -17.703125 C 4.65625 -17.929688 4.539062 -18.046875 4.3125 -18.046875 L 1.828125 -18.046875 C 1.535156 -18.046875 1.390625 -18.1875 1.390625 -18.46875 L 1.390625 -19.375 C 1.390625 -19.65625 1.535156 -19.796875 1.828125 -19.796875 L 4.3125 -19.796875 C 4.539062 -19.796875 4.65625 -19.910156 4.65625 -20.140625 L 4.65625 -21.84375 C 4.65625 -25.46875 6.300781 -27.28125 9.59375 -27.28125 L 10.515625 -27.28125 C 10.828125 -27.28125 10.984375 -27.140625 10.984375 -26.859375 L 10.984375 -25.96875 C 10.984375 -25.675781 10.828125 -25.53125 10.515625 -25.53125 L 9.78125 -25.53125 C 8.613281 -25.53125 7.796875 -25.21875 7.328125 -24.59375 C 6.867188 -23.976562 6.640625 -23.039062 6.640625 -21.78125 L 6.640625 -20.140625 C 6.640625 -19.910156 6.753906 -19.796875 6.984375 -19.796875 Z M 6.984375 -19.796875 "/></g></g></g><g fill="#ffffff" fill-opacity="1"><g transform="translate(99.612209, 130.92089)"><g><path d="M 2.328125 -0.421875 L 2.328125 -3.84375 C 2.328125 -5.65625 3.101562 -7.144531 4.65625 -8.3125 L 12.296875 -14.125 C 13.617188 -15.132812 14.28125 -16.429688 14.28125 -18.015625 L 14.28125 -19.515625 C 14.28125 -22.003906 13.050781 -23.25 10.59375 -23.25 L 7.796875 -23.25 C 5.367188 -23.25 4.15625 -22.003906 4.15625 -19.515625 L 4.15625 -17.78125 C 4.15625 -17.46875 4.007812 -17.3125 3.71875 -17.3125 L 2.59375 -17.3125 C 2.3125 -17.3125 2.171875 -17.46875 2.171875 -17.78125 L 2.171875 -19.5625 C 2.171875 -21.238281 2.660156 -22.554688 3.640625 -23.515625 C 4.628906 -24.472656 5.960938 -24.953125 7.640625 -24.953125 L 10.796875 -24.953125 C 12.472656 -24.953125 13.796875 -24.476562 14.765625 -23.53125 C 15.734375 -22.59375 16.21875 -21.269531 16.21875 -19.5625 L 16.21875 -17.9375 C 16.21875 -15.914062 15.40625 -14.285156 13.78125 -13.046875 L 6.0625 -7.109375 C 4.96875 -6.273438 4.421875 -5.25 4.421875 -4.03125 L 4.421875 -1.78125 L 15.90625 -1.78125 C 16.195312 -1.78125 16.34375 -1.640625 16.34375 -1.359375 L 16.34375 -0.421875 C 16.34375 -0.140625 16.195312 0 15.90625 0 L 2.796875 0 C 2.484375 0 2.328125 -0.140625 2.328125 -0.421875 Z M 2.328125 -0.421875 "/></g></g></g><g fill="#ffffff" fill-opacity="1"><g transform="translate(118.158981, 130.92089)"><g><path d="M 8.1875 -1.75 L 11.765625 -1.75 C 12.953125 -1.75 13.851562 -2.078125 14.46875 -2.734375 C 15.09375 -3.390625 15.40625 -4.34375 15.40625 -5.59375 L 15.40625 -19.375 C 15.40625 -20.613281 15.09375 -21.5625 14.46875 -22.21875 C 13.851562 -22.875 12.953125 -23.203125 11.765625 -23.203125 L 8.1875 -23.203125 C 7 -23.203125 6.09375 -22.875 5.46875 -22.21875 C 4.851562 -21.5625 4.546875 -20.613281 4.546875 -19.375 L 4.546875 -5.59375 C 4.546875 -4.34375 4.851562 -3.390625 5.46875 -2.734375 C 6.09375 -2.078125 7 -1.75 8.1875 -1.75 Z M 11.921875 0 L 8.03125 0 C 6.351562 0 5.019531 -0.488281 4.03125 -1.46875 C 3.050781 -2.457031 2.5625 -3.804688 2.5625 -5.515625 L 2.5625 -19.4375 C 2.5625 -21.144531 3.050781 -22.488281 4.03125 -23.46875 C 5.019531 -24.457031 6.351562 -24.953125 8.03125 -24.953125 L 11.921875 -24.953125 C 13.597656 -24.953125 14.921875 -24.457031 15.890625 -23.46875 C 16.859375 -22.488281 17.34375 -21.144531 17.34375 -19.4375 L 17.34375 -5.515625 C 17.34375 -3.804688 16.859375 -2.457031 15.890625 -1.46875 C 14.921875 -0.488281 13.597656 0 11.921875 0 Z M 11.921875 0 "/></g></g></g><g fill="#ffffff" fill-opacity="1"><g transform="translate(138.102589, 130.92089)"><g><path d="M 2.328125 -0.421875 L 2.328125 -3.84375 C 2.328125 -5.65625 3.101562 -7.144531 4.65625 -8.3125 L 12.296875 -14.125 C 13.617188 -15.132812 14.28125 -16.429688 14.28125 -18.015625 L 14.28125 -19.515625 C 14.28125 -22.003906 13.050781 -23.25 10.59375 -23.25 L 7.796875 -23.25 C 5.367188 -23.25 4.15625 -22.003906 4.15625 -19.515625 L 4.15625 -17.78125 C 4.15625 -17.46875 4.007812 -17.3125 3.71875 -17.3125 L 2.59375 -17.3125 C 2.3125 -17.3125 2.171875 -17.46875 2.171875 -17.78125 L 2.171875 -19.5625 C 2.171875 -21.238281 2.660156 -22.554688 3.640625 -23.515625 C 4.628906 -24.472656 5.960938 -24.953125 7.640625 -24.953125 L 10.796875 -24.953125 C 12.472656 -24.953125 13.796875 -24.476562 14.765625 -23.53125 C 15.734375 -22.59375 16.21875 -21.269531 16.21875 -19.5625 L 16.21875 -17.9375 C 16.21875 -15.914062 15.40625 -14.285156 13.78125 -13.046875 L 6.0625 -7.109375 C 4.96875 -6.273438 4.421875 -5.25 4.421875 -4.03125 L 4.421875 -1.78125 L 15.90625 -1.78125 C 16.195312 -1.78125 16.34375 -1.640625 16.34375 -1.359375 L 16.34375 -0.421875 C 16.34375 -0.140625 16.195312 0 15.90625 0 L 2.796875 0 C 2.484375 0 2.328125 -0.140625 2.328125 -0.421875 Z M 2.328125 -0.421875 "/></g></g></g><g fill="#ffffff" fill-opacity="1"><g transform="translate(156.64936, 130.92089)"><g><path d="M 10.875 -14.046875 L 7.53125 -14.046875 C 6.90625 -14.046875 6.382812 -13.941406 5.96875 -13.734375 C 5.5625 -13.523438 5.289062 -13.296875 5.15625 -13.046875 C 4.820312 -12.398438 4.515625 -12.078125 4.234375 -12.078125 L 2.984375 -12.078125 C 2.722656 -12.078125 2.59375 -12.21875 2.59375 -12.5 L 2.59375 -24.484375 C 2.59375 -24.796875 2.722656 -24.953125 2.984375 -24.953125 L 15.609375 -24.953125 C 15.910156 -24.953125 16.0625 -24.8125 16.0625 -24.53125 L 16.0625 -23.5625 C 16.0625 -23.269531 15.910156 -23.125 15.609375 -23.125 L 4.546875 -23.125 L 4.546875 -13.8125 C 5.003906 -15.082031 6.113281 -15.71875 7.875 -15.71875 L 11.140625 -15.71875 C 12.816406 -15.71875 14.132812 -15.25 15.09375 -14.3125 C 16.050781 -13.382812 16.53125 -12.066406 16.53125 -10.359375 L 16.53125 -5.515625 C 16.53125 -3.804688 16.035156 -2.457031 15.046875 -1.46875 C 14.066406 -0.488281 12.738281 0 11.0625 0 L 7.953125 0 C 6.273438 0 4.945312 -0.488281 3.96875 -1.46875 C 3 -2.457031 2.515625 -3.804688 2.515625 -5.515625 L 2.515625 -6.875 C 2.515625 -7.175781 2.644531 -7.328125 2.90625 -7.328125 L 4.03125 -7.328125 C 4.320312 -7.328125 4.46875 -7.175781 4.46875 -6.875 L 4.46875 -5.546875 C 4.46875 -4.328125 4.773438 -3.378906 5.390625 -2.703125 C 6.015625 -2.035156 6.921875 -1.703125 8.109375 -1.703125 L 10.90625 -1.703125 C 12.09375 -1.703125 13.003906 -2.03125 13.640625 -2.6875 C 14.273438 -3.351562 14.59375 -4.304688 14.59375 -5.546875 L 14.59375 -10.203125 C 14.59375 -12.765625 13.351562 -14.046875 10.875 -14.046875 Z M 10.875 -14.046875 "/></g></g></g></svg>