<?xml version="1.0" encoding="UTF-8"?>
<svg id="Layer_3" data-name="Layer 3" xmlns="http://www.w3.org/2000/svg" viewBox="0 0 812.18 200.48">
  <defs>
    <style>
      .cls-1 {
        fill: #f89d1e;
      }

      .cls-2 {
        fill: #637863;
      }
    </style>
  </defs>
  <path class="cls-2" d="M210.04,69.11h30.2v127.24h-29.68l-1.55-18.58c-7.23,14.97-27.1,22.19-41.29,22.45-37.68.26-65.56-22.97-65.56-67.62s29.16-66.85,66.33-66.59c17.03,0,33.29,8,40.52,20.65l1.03-17.55ZM133.65,132.6c0,24.26,16.78,38.71,37.68,38.71,49.55,0,49.55-77.17,0-77.17-20.91,0-37.68,14.19-37.68,38.46Z"/>
  <path class="cls-2" d="M92.29,162.52c-7.22,5.62-15.94,7.76-24.67,7.76-19.61,0-36.13-12.9-36.13-37.16,0-22.2,15.49-37.68,36.65-37.68,8.21,0,16.85,2.98,24.07,8.85,2.83-9.93,7.2-18.93,13.05-26.83-11.31-8.37-23.14-11.71-37.63-11.71C30.71,65.76,0,87.95,0,133.12s30.71,67.36,67.62,67.36c14.09,0,26.31-3.18,37.72-10.83-5.84-7.93-10.21-17.04-13.05-27.13Z"/>
  <path class="cls-2" d="M512.95,69.11h30.2v127.24h-29.68l-1.55-18.58c-7.23,14.97-27.1,22.19-41.29,22.45-37.68.26-65.55-22.97-65.55-67.62s29.16-66.85,66.33-66.59c17.03,0,33.29,8,40.52,20.65l1.03-17.55ZM436.55,132.6c0,24.26,16.78,38.71,37.68,38.71,49.55,0,49.55-77.17,0-77.17-20.91,0-37.68,14.19-37.68,38.46Z"/>
  <path class="cls-2" d="M812.18,132.86c0,36.65-25.03,66.33-66.33,66.33s-66.07-29.68-66.07-66.33,25.29-66.33,65.81-66.33,66.59,29.94,66.59,66.33ZM711.27,132.86c0,19.36,11.61,37.42,34.58,37.42s34.58-18.07,34.58-37.42-13.42-37.68-34.58-37.68c-22.71,0-34.58,18.58-34.58,37.68Z"/>
  <path class="cls-2" d="M348.46.04v27.68h11v58.68c-7.48-13.16-28.39-20.39-41.81-20.39-37.16,0-64.78,22.71-64.78,66.59s28.13,66.59,65.56,66.59c15.48,0,31.23-5.16,41.04-20.39l2.07,17.55h29.42V0l-42.49.04ZM320.48,170.03c-20.13,0-36.13-15.23-36.13-37.42s16-37.16,36.13-37.16,36.91,14.97,36.91,37.16-17.03,37.42-36.91,37.42Z"/>
  <polygon class="cls-1" points="559.09 91.97 585.56 131.69 559.09 170.17 559.09 91.97"/>
  <path class="cls-1" d="M650.76,69.11h37.68v1.03l-41.81,61.68,44.39,63.75v.77h-37.68l-27.62-42.59-27.62,42.59h-37.68v-.77l44.39-63.75-41.81-61.68v-1.03h37.68l25.03,43.1,25.03-43.1Z"/>
</svg>