<svg width="2113" height="1145" xmlns="http://www.w3.org/2000/svg" xmlns:xlink="http://www.w3.org/1999/xlink" xml:space="preserve" overflow="hidden"><g transform="translate(-742 -330)"><g><rect x="2262" y="407" width="455" height="485" fill="#384473" fill-opacity="1"/><path d="M866 801.771C866 583.745 1042.74 407 1260.77 407L2322.23 407C2540.26 407 2717 583.745 2717 801.771L2717 982.229C2717 1200.26 2540.26 1377 2322.23 1377L1260.77 1377C1042.74 1377 866 1200.26 866 982.229Z" fill="#384473" fill-rule="evenodd" fill-opacity="1"/><text fill="#FFFFFF" fill-opacity="1" font-family="Rajdhani Medium,Rajdhani Medium_MSFontService,sans-serif" font-style="normal" font-variant="normal" font-weight="500" font-stretch="normal" font-size="527" text-anchor="start" direction="ltr" writing-mode="lr-tb" unicode-bidi="normal" text-decoration="none" transform="matrix(1 0 0 1 1061.42 951)">a b a p</text><text fill="#FFFFFF" fill-opacity="1" font-family="Rajdhani Medium,Rajdhani Medium_MSFontService,sans-serif" font-style="normal" font-variant="normal" font-weight="500" font-stretch="normal" font-size="275" text-anchor="start" direction="ltr" writing-mode="lr-tb" unicode-bidi="normal" text-decoration="none" transform="matrix(1 0 0 1 1082.78 1221)">conf</text><text fill="#FFFFFF" fill-opacity="1" font-family="Rajdhani Medium,Rajdhani Medium_MSFontService,sans-serif" font-style="normal" font-variant="normal" font-weight="500" font-stretch="normal" font-size="275" text-anchor="start" direction="ltr" writing-mode="lr-tb" unicode-bidi="normal" text-decoration="none" transform="matrix(1 0 0 1 1628.77 1221)">2025</text><path d="M0 0 1.14078 287.43" stroke="#FFFFFF" stroke-width="41.25" stroke-linecap="round" stroke-linejoin="miter" stroke-miterlimit="8" stroke-opacity="1" fill="none" fill-rule="evenodd" transform="matrix(-1 0 0 1 2322.64 916.5)"/></g></g></svg>