<svg class="custom-logo" itemprop="siteLogo" alt="cbs Corporate Business Solutions" width="294px" height="111px" viewBox="0 0 294 111" version="1.1" xmlns="http://www.w3.org/2000/svg" xmlns:xlink="http://www.w3.org/1999/xlink">
    <title>logo-22</title>
        <g id="logo-22" fill-rule="nonzero">
            <path d="M217.1,105.5 C223.930942,108.403997 231.277402,109.9 238.7,109.9 C269,109.9 293.6,85.3 293.6,55 C293.6,48.8 292.6,42.9 290.7,37.3 C282,62.2 235.1,101.4 217.1,105.5 M193.6,23.6 C187.4,32.5 183.7,43.3 183.7,55 C183.7,67.7 188,79.4 195.3,88.7 C191.7,72.6 191.3,37.5 193.6,23.6 M274.3,13.1 C264.7,4.9 252.3,0 238.7,0 C225.1,0 211.9,5.3 202.2,13.9 C229.7,7.5 261.5,11.2 274.3,13.1 M207.9,33 C206.7,36.8 205.5,46.7 205.5,58.1 C205.5,69.5 206.6,82 207.9,86.9 C209.3,91.7 210.2,92.9 214.8,91.7 C219.4,90.5 242.7,73.1 248.7,67.4 C254.9,62.3 266,50.7 278.4,34.3 C282.9,27.7 275.6,26.6 275.6,26.6 C275.6,26.6 261.4,23.2 241.5,23.7 C227.3,24.3 217.6,25.5 214.1,26.5 C210.5,27.6 209.1,29.2 207.9,33" id="logo-b" fill="#EF7D00"></path>
            <path d="M71,16.3 L71,52.9 C76.2,49 81.8,47.1 87.8,47.1 C95.6,47.1 102,50 106.9,55.9 C111.8,61.7 114.3,69.3 114.3,78.5 C114.3,88.4 111.4,96.2 105.5,102.1 C99.6,108 91.7,110.9 81.8,110.9 C77.9,110.9 73.7,110.4 69.3,109.6 C64.9,108.8 61.4,107.7 58.8,106.4 L58.8,106.4 L58.8,27.5 C58.8,27.5 60.6009735,25.8937263 62.5049568,24.2093463 L62.8866238,23.8718817 L62.8866238,23.8718817 L63.2680192,23.535051 C63.8383991,23.0316387 64.3976744,22.5395349 64.9,22.1 C66.8863636,20.375 68.4628616,18.868595 69.5152282,17.8235995 L69.9000188,17.4387772 C70.6150826,16.7183884 71,16.3 71,16.3 L71,16.3 Z M140.9,46.9 C146.9,46.9 153.1,48.6 159.4,52 L159.4,52 L159.4,64 C152.2,59.7 146.3,57.5 141.7,57.5 C139.4,57.5 137.5,58 136,59 C134.5,60 133.8,61.3 133.8,63 C133.8,64.4 134.5,65.8 135.8,67.1 C137.1,68.4 139.4,70 142.7,71.8 L142.7,71.8 L147.1,74.3 C157.4,80.1 162.5,86.5 162.5,93.5 C162.5,98.5 160.5,102.7 156.6,105.9 C152.7,109.1 147.6,110.7 141.4,110.7 C137.7,110.7 134.5,110.3 131.6,109.5 L131.6,109.5 C128.7,108.7 125.1,107.3 120.7,105.3 L120.7,105.3 L120.7,92.2 C124.1,94.6 127.6,96.6 131.2,98 C134.8,99.4 137.7,100.2 140.3,100.2 C142.9,100.2 145.1,99.6 146.9,98.3 C148.7,97 149.6,95.5 149.6,93.8 C149.6,92.1 148.9,90.6 147.8,89.4 C146.7,88.2 144.1,86.5 140.2,84.3 C132.4,79.9 127.2,76.2 124.8,73.1 C122.4,70 121.2,66.6 121.2,63 C121.2,58.2 123,54.4 126.7,51.4 C130.4,48.4 134.9,46.9 140.9,46.9 Z M30.4,46.2 C33.5,46.2 36.4,46.5 38.9,47.1 C41.4,47.7 44.5,48.8 48.2,50.5 L48.2,50.5 L48.2,63.5 C42.1,59.6 36.6,57.6 31.1,57.6 C25.6,57.6 21.1,59.6 17.6,63.4 C14.1,67.2 12.3,71.8 12.3,78.1 C12.3,84.4 14.2,89.4 18,93.1 C21.8,96.9 26.9,98.7 33.4,98.7 C38.1,98.7 43.5,97.3 49.5,94.6 L49.5,94.6 L49.5,106.6 C43.4,108.9 37.4,110 31.6,110 C22,110 14.3,107.1 8.6,101.4 C2.9,95.7 0,88.1 0,78.5 C0,68.8 2.8,61 8.4,55.1 C14,49.2 21.3,46.2 30.4,46.2 Z M84.8,58.4 C80.2,58.4 75.6,60.4 71,64.4 L71,64.4 L71,97.7 C75.2,99 79.4,99.6 83.8,99.6 C89.2,99.6 93.6,97.6 97,93.8 C100.4,89.9 102.1,85.1 102.1,79 C102.1,72.9 100.5,67.9 97.3,64.1 C94.1,60.3 89.9,58.4 84.8,58.4 Z" id="logo-a" fill="currentColor"></path>
        </g>
</svg>